<svg xmlns="http://www.w3.org/2000/svg" viewBox="0 0 1600 900">
  <defs>
    <linearGradient id="g0" x1="0" y1="0" x2="1" y2="0">
      <stop offset="0" stop-color="#0B0F1A"/>
      <stop offset="1" stop-color="#0B0F1A"/>
    </linearGradient>
    <radialGradient id="glow" cx="35%" cy="35%" r="65%">
      <stop offset="0" stop-color="#2563EB" stop-opacity="0.18"/>
      <stop offset="0.55" stop-color="#2563EB" stop-opacity="0.06"/>
      <stop offset="1" stop-color="#2563EB" stop-opacity="0"/>
    </radialGradient>
    <linearGradient id="wave" x1="0" y1="0" x2="1" y2="1">
      <stop offset="0" stop-color="#1E293B" stop-opacity="0.35"/>
      <stop offset="0.6" stop-color="#0F172A" stop-opacity="0.15"/>
      <stop offset="1" stop-color="#0B0F1A" stop-opacity="0.05"/>
    </linearGradient>
    <filter id="blur24" x="-20%" y="-20%" width="140%" height="140%">
      <feGaussianBlur stdDeviation="24"/>
    </filter>
  </defs>

  <rect width="1600" height="900" fill="url(#g0)"/>
  <rect width="1600" height="900" fill="url(#glow)"/>

  <g opacity="0.9">
    <path
      d="M0,620 C240,540 420,720 680,630 C940,540 1090,640 1330,590 C1460,560 1540,540 1600,520 L1600,900 L0,900 Z"
      fill="url(#wave)"
    />
    <path
      d="M0,700 C240,620 440,780 700,700 C950,625 1120,735 1330,690 C1470,660 1545,645 1600,620"
      fill="none"
      stroke="#2563EB"
      stroke-opacity="0.18"
      stroke-width="2.2"
    />
    <path
      d="M0,740 C260,660 460,820 735,740 C980,670 1160,780 1380,740 C1495,720 1560,705 1600,685"
      fill="none"
      stroke="#93C5FD"
      stroke-opacity="0.08"
      stroke-width="1.6"
    />
  </g>

  <g filter="url(#blur24)" opacity="0.55">
    <circle cx="380" cy="260" r="140" fill="#2563EB" opacity="0.12"/>
    <circle cx="1220" cy="420" r="180" fill="#2563EB" opacity="0.10"/>
  </g>

  <g fill="#E2E8F0" opacity="0.22">
    <circle cx="180" cy="180" r="2.2"/>
    <circle cx="270" cy="120" r="1.6"/>
    <circle cx="520" cy="170" r="1.4"/>
    <circle cx="640" cy="120" r="1.8"/>
    <circle cx="740" cy="210" r="1.2"/>
    <circle cx="900" cy="150" r="1.6"/>
    <circle cx="1040" cy="210" r="1.8"/>
    <circle cx="1180" cy="140" r="1.2"/>
    <circle cx="1340" cy="220" r="1.6"/>
    <circle cx="1480" cy="170" r="1.4"/>
    <circle cx="300" cy="340" r="1.2"/>
    <circle cx="420" cy="420" r="1.6"/>
    <circle cx="560" cy="360" r="1.4"/>
    <circle cx="760" cy="440" r="1.2"/>
    <circle cx="980" cy="380" r="1.4"/>
    <circle cx="1140" cy="470" r="1.2"/>
    <circle cx="1420" cy="420" r="1.4"/>
  </g>
</svg>
